HIERARCHY
ROOT Hips
{
	OFFSET 0.000000 0.000000 0.000000
	CHANNELS 6 Xposition Yposition Zposition Xrotation Yrotation Zrotation
	JOINT LeftUpLeg_virtual
	{
		OFFSET 0.000000 0.000000 0.000000
		CHANNELS 3 Xrotation Yrotation Zrotation
		JOINT LeftUpLeg
		{
			OFFSET 13.026900 -6.336304 -1.092800
			CHANNELS 3 Xrotation Yrotation Zrotation
			JOINT LeftLeg
			{
				OFFSET 0.524474 -46.096886 9.782700
				CHANNELS 3 Xrotation Yrotation Zrotation
				JOINT LeftFoot
				{
					OFFSET -0.524474 -53.427422 -12.948200
					CHANNELS 3 Xrotation Yrotation Zrotation
					JOINT LeftToeBase
					{
						OFFSET 0.192200 -14.009700 16.364100
						CHANNELS 3 Xrotation Yrotation Zrotation
						JOINT LeftToe_End
						{
							OFFSET -1.784700 -0.561700 9.474800
							CHANNELS 3 Xrotation Yrotation Zrotation
							End Site
							{
								OFFSET 0 0 0
							}
						}
					}
				}
			}
		}
	}
	JOINT RightUpLeg_virtual
	{
		OFFSET 0.000000 0.000000 0.000000
		CHANNELS 3 Xrotation Yrotation Zrotation
		JOINT RightUpLeg
		{
			OFFSET -12.883000 -6.336304 -1.092800
			CHANNELS 3 Xrotation Yrotation Zrotation
			JOINT RightLeg
			{
				OFFSET -0.524587 -46.096825 9.782800
				CHANNELS 3 Xrotation Yrotation Zrotation
				JOINT RightFoot
				{
					OFFSET 0.524587 -53.427383 -12.948300
					CHANNELS 3 Xrotation Yrotation Zrotation
					JOINT RightToeBase
					{
						OFFSET -0.192200 -14.009700 16.364100
						CHANNELS 3 Xrotation Yrotation Zrotation
						JOINT RightToe_End
						{
							OFFSET 1.784700 -0.561700 9.474800
							CHANNELS 3 Xrotation Yrotation Zrotation
							End Site
							{
								OFFSET 0 0 0
							}
						}
					}
				}
			}
		}
	}
	JOINT Spine_virtual
	{
		OFFSET 0.000000 0.000000 0.000000
		CHANNELS 3 Xrotation Yrotation Zrotation
		JOINT Spine
		{
			OFFSET 0.072000 7.257294 -0.789700
			CHANNELS 3 Xrotation Yrotation Zrotation
			JOINT Spine1
			{
				OFFSET 0.000000 12.508769 -0.658067
				CHANNELS 3 Xrotation Yrotation Zrotation
				JOINT Spine1_split
				{
					OFFSET 0.000000 12.508769 -0.658067
					CHANNELS 3 Xrotation Yrotation Zrotation
					JOINT Spine2
					{
						OFFSET 0.000000 12.508769 -0.658067
						CHANNELS 3 Xrotation Yrotation Zrotation
						JOINT Neck_virtual
						{
							OFFSET 0.000000 0.000000 0.000000
							CHANNELS 3 Xrotation Yrotation Zrotation
							JOINT Neck
							{
								OFFSET 0.000000 14.033295 7.520400
								CHANNELS 3 Xrotation Yrotation Zrotation
								JOINT Head
								{
									OFFSET 0.000000 8.198502 5.703100
									CHANNELS 3 Xrotation Yrotation Zrotation
									JOINT HeadTop_End
									{
										OFFSET 0.000000 17.760803 13.332701
										CHANNELS 3 Xrotation Yrotation Zrotation
										End Site
										{
											OFFSET 0 0 0
										}
									}
								}
							}
						}
						JOINT LeftShoulder_virtual
						{
							OFFSET 0.000000 0.000000 0.000000
							CHANNELS 3 Xrotation Yrotation Zrotation
							JOINT LeftShoulder
							{
								OFFSET 6.292450 5.785301 -0.669000
								CHANNELS 3 Xrotation Yrotation Zrotation
								JOINT LeftShoulder_split
								{
									OFFSET 6.292450 5.785301 -0.669000
									CHANNELS 3 Xrotation Yrotation Zrotation
									JOINT LeftArm
									{
										OFFSET 13.907140 -6.093903 1.965100
										CHANNELS 3 Xrotation Yrotation Zrotation
										JOINT LeftForeArm
										{
											OFFSET 34.140198 0.000000 0.000000
											CHANNELS 3 Xrotation Yrotation Zrotation
											JOINT LeftHand
											{
												OFFSET 40.960209 0.000000 0.000000
												CHANNELS 3 Xrotation Yrotation Zrotation
												End Site
												{
													OFFSET 0 0 0
												}
											}
										}
									}
								}
							}
						}
						JOINT RightShoulder_virtual
						{
							OFFSET 0.000000 0.000000 0.000000
							CHANNELS 3 Xrotation Yrotation Zrotation
							JOINT RightShoulder
							{
								OFFSET -6.292450 5.785301 -0.669000
								CHANNELS 3 Xrotation Yrotation Zrotation
								JOINT RightShoulder_split
								{
									OFFSET -6.292450 5.785301 -0.669000
									CHANNELS 3 Xrotation Yrotation Zrotation
									JOINT RightArm
									{
										OFFSET -13.907140 -6.093903 1.965100
										CHANNELS 3 Xrotation Yrotation Zrotation
										JOINT RightForeArm
										{
											OFFSET -34.140198 0.000000 0.000000
											CHANNELS 3 Xrotation Yrotation Zrotation
											JOINT RightHand
											{
												OFFSET -40.960209 0.000000 0.000000
												CHANNELS 3 Xrotation Yrotation Zrotation
												End Site
												{
													OFFSET 0 0 0
												}
											}
										}
									}
								}
							}
						}
					}
				}
			}
		}
	}
}
MOTION
Frames: 5
Frame Time: 0.03333333
-0.233329 108.131851 -1.501701 0.000000 0.000000 0.000000 7.329400 -17.454907 1.557349 -42.109960 4.654766 11.679489 34.058701 5.556231 1.689653 0.717183 -1.170714 -7.398238 0.733132 -1.262349 -0.698777 0.000000 0.000000 0.000000 7.977217 -18.209023 2.018259 -14.280744 -9.389717 -12.653051 27.778306 -2.563605 -0.317341 -15.763044 -7.448417 14.575130 -0.764391 0.967982 0.619518 0.000000 0.000000 0.000000 7.625539 -14.337363 1.596254 25.086429 4.731008 -1.013365 2.529938 2.072404 -1.662640 0.500775 1.458220 0.406051 0.000000 0.000000 0.000000 3.627178 1.666095 -0.953031 -14.292548 1.925241 1.708424 -11.333622 10.351707 -2.183654 0.000000 0.000000 0.000000 3.470056 2.000866 -1.115237 6.923350 -21.175231 8.718716 -0.780289 -0.803922 0.935367 -31.449142 -10.667645 -84.759492 -0.325185 -44.688903 -2.990452 0.000000 0.000000 0.000000 3.873680 1.929878 -0.858544 12.143995 25.664649 -20.372866 -4.967757 1.746261 -1.120961 -43.123219 1.044978 85.867636 -0.552277 61.023328 7.578048 0.000000 0.000000 0.000000 
-0.226793 108.155930 -1.562634 0.000000 0.000000 0.000000 7.326453 -17.709424 1.592342 -41.992389 4.568323 11.719190 34.229261 5.743730 1.610960 0.512352 -1.092124 -7.522395 0.821462 -1.266142 -0.707336 0.000000 0.000000 0.000000 7.990659 -18.334408 2.057491 -14.467099 -9.545479 -12.683295 27.713098 -2.526423 -0.343078 -15.699234 -7.337291 14.364404 -0.645130 0.943289 0.664155 0.000000 0.000000 0.000000 7.601553 -14.630014 1.558670 25.091489 4.691415 -0.944366 2.519826 2.070461 -1.596631 0.481433 1.370890 0.391362 0.000000 0.000000 0.000000 3.652692 1.707178 -0.932375 -14.197793 2.171636 1.600719 -11.428574 10.810835 -2.642841 0.000000 0.000000 0.000000 3.378380 2.015706 -1.084034 6.901087 -20.895610 8.478110 -0.587753 -1.489038 1.060507 -31.960258 -10.829359 -84.545154 -0.709495 -44.890691 -3.257014 0.000000 0.000000 0.000000 3.849814 1.949104 -0.783285 12.031907 25.638044 -20.145544 -5.102512 1.462831 -1.010467 -43.007434 0.269749 86.027797 -1.282843 61.417150 8.171317 0.000000 0.000000 0.000000 
-0.212483 108.157211 -1.658119 0.000000 0.000000 0.000000 7.251837 -18.420460 1.631799 -41.712071 4.499704 11.914153 34.497868 6.129268 1.481419 0.122152 -0.840925 -7.727534 0.924842 -1.257107 -0.740977 0.000000 0.000000 0.000000 7.916656 -18.934917 2.096501 -14.968795 -9.633256 -12.784992 27.852198 -2.273422 -0.405047 -15.689875 -7.059584 14.143801 -0.668477 0.944685 0.640886 0.000000 0.000000 0.000000 7.504786 -15.383135 1.543975 25.054461 4.663035 -0.784692 2.511950 2.083747 -1.538469 0.461368 1.258681 0.391754 0.000000 0.000000 0.000000 3.700351 1.747599 -0.913960 -14.111313 2.872788 1.253817 -11.581574 11.869292 -3.413634 0.000000 0.000000 0.000000 3.302832 2.063234 -1.044507 6.781445 -20.624525 7.800512 -0.375794 -2.108685 0.976403 -32.145350 -11.687257 -83.352610 -0.657212 -45.300062 -3.185981 0.000000 0.000000 0.000000 3.858439 1.964030 -0.742174 11.709067 25.460350 -19.651412 -5.254527 1.316218 -0.884985 -43.352034 0.907125 85.693295 -1.867884 61.166311 8.517501 0.000000 0.000000 0.000000 
-0.170685 108.143417 -1.800232 0.000000 0.000000 0.000000 7.096219 -19.440274 1.679025 -41.305364 4.494662 12.216884 34.766383 6.686245 1.302443 -0.364261 -0.475586 -7.979157 1.011076 -1.236635 -0.787525 0.000000 0.000000 0.000000 7.774275 -19.920137 2.154035 -15.748089 -9.673990 -12.963757 28.240127 -1.809828 -0.495311 -15.697933 -6.638578 13.934173 -0.779791 0.964015 0.565720 0.000000 0.000000 0.000000 7.320957 -16.516806 1.564726 24.995803 4.640308 -0.570655 2.525213 2.107402 -1.489514 0.406597 1.098013 0.471622 0.000000 0.000000 0.000000 3.743680 1.783846 -0.884665 -14.045569 3.904662 0.704660 -11.719523 13.299765 -4.329840 0.000000 0.000000 0.000000 3.271299 2.123186 -1.010829 6.583457 -20.364827 6.734997 -0.189377 -2.495264 0.738001 -31.939177 -13.160262 -81.355421 -0.301024 -45.704163 -2.925646 0.000000 0.000000 0.000000 3.900587 1.981633 -0.731767 11.232062 25.177679 -18.973393 -5.400415 1.309334 -0.682540 -44.119341 2.942354 84.997265 -2.273859 60.364044 8.631852 0.000000 0.000000 0.000000 
-0.099443 108.120323 -1.970634 0.000000 0.000000 0.000000 6.897321 -20.636670 1.746116 -40.782629 4.571837 12.584440 34.972583 7.367217 1.087141 -0.858234 -0.077204 -8.257414 1.079715 -1.210156 -0.832492 0.000000 0.000000 0.000000 7.583609 -21.166346 2.246084 -16.727208 -9.695608 -13.202411 28.833671 -1.184431 -0.617945 -15.710779 -6.144220 13.690019 -0.887511 0.989615 0.459876 0.000000 0.000000 0.000000 7.078437 -17.904246 1.615622 24.944775 4.608329 -0.350640 2.570378 2.134413 -1.448183 0.508360 0.929404 0.545166 0.000000 0.000000 0.000000 3.766291 1.813318 -0.845070 -14.029939 5.123201 -0.004202 -11.823424 14.689020 -5.170860 0.000000 0.000000 0.000000 3.270665 2.181050 -0.991483 6.324780 -20.124293 5.404902 -0.135294 -2.545562 0.567977 -31.323343 -15.168194 -78.761958 0.115771 -46.171413 -2.680140 0.000000 0.000000 0.000000 3.955760 2.007196 -0.745411 10.677508 24.853634 -18.216381 -5.491386 1.230871 -0.461017 -45.122227 6.023141 84.059152 -2.569940 59.211156 8.626043 0.000000 0.000000 0.000000 
